<svg xmlns="http://www.w3.org/2000/svg" xmlns:xlink="http://www.w3.org/1999/xlink" viewBox="0 0 500 500" data-imageid="meal-37" imageName="Meal" class="illustrations_image" style="width: 152px;">
  <defs>
    <style>
      .cls-1_meal-37{fill:url(#linear-gradient);}.cls-1_meal-37,.cls-2_meal-37,.cls-3_meal-37,.cls-4_meal-37,.cls-5_meal-37,.cls-6_meal-37,.cls-7_meal-37,.cls-8_meal-37,.cls-9_meal-37,.cls-10_meal-37,.cls-11_meal-37,.cls-12_meal-37,.cls-13_meal-37,.cls-14_meal-37,.cls-15_meal-37,.cls-16_meal-37,.cls-17_meal-37,.cls-18_meal-37,.cls-19_meal-37,.cls-20_meal-37,.cls-21_meal-37,.cls-22_meal-37,.cls-23_meal-37,.cls-24_meal-37,.cls-25_meal-37,.cls-26_meal-37,.cls-27_meal-37,.cls-28_meal-37,.cls-29_meal-37,.cls-30_meal-37,.cls-31_meal-37,.cls-32_meal-37,.cls-33_meal-37,.cls-34_meal-37{stroke-width:0px;}.cls-2_meal-37{isolation:isolate;opacity:.18;}.cls-2_meal-37,.cls-34_meal-37{fill:#68e1fd;}.cls-3_meal-37{fill:url(#linear-gradient-29-meal-37);}.cls-4_meal-37{fill:url(#linear-gradient-30-meal-37);}.cls-5_meal-37{fill:url(#linear-gradient-28-meal-37);}.cls-6_meal-37{fill:url(#linear-gradient-25-meal-37);}.cls-7_meal-37{fill:url(#linear-gradient-11-meal-37);}.cls-8_meal-37{fill:url(#linear-gradient-12-meal-37);}.cls-9_meal-37{fill:url(#linear-gradient-13-meal-37);}.cls-10_meal-37{fill:url(#linear-gradient-10-meal-37);}.cls-11_meal-37{fill:url(#linear-gradient-17-meal-37);}.cls-12_meal-37{fill:url(#linear-gradient-16-meal-37);}.cls-13_meal-37{fill:url(#linear-gradient-19-meal-37);}.cls-14_meal-37{fill:url(#linear-gradient-15-meal-37);}.cls-15_meal-37{fill:url(#linear-gradient-23-meal-37);}.cls-16_meal-37{fill:url(#linear-gradient-21-meal-37);}.cls-17_meal-37{fill:url(#linear-gradient-18-meal-37);}.cls-18_meal-37{fill:url(#linear-gradient-14-meal-37);}.cls-19_meal-37{fill:url(#linear-gradient-22-meal-37);}.cls-20_meal-37{fill:url(#linear-gradient-20-meal-37);}.cls-21_meal-37{fill:url(#linear-gradient-27-meal-37);}.cls-22_meal-37{fill:url(#linear-gradient-24-meal-37);}.cls-23_meal-37{fill:url(#linear-gradient-26-meal-37);}.cls-24_meal-37{fill:url(#linear-gradient-4-meal-37);}.cls-25_meal-37{fill:url(#linear-gradient-2-meal-37);}.cls-26_meal-37{fill:url(#linear-gradient-3-meal-37);}.cls-27_meal-37{fill:url(#linear-gradient-8-meal-37);}.cls-28_meal-37{fill:url(#linear-gradient-9-meal-37);}.cls-29_meal-37{fill:url(#linear-gradient-7-meal-37);}.cls-30_meal-37{fill:url(#linear-gradient-5-meal-37);}.cls-31_meal-37{fill:url(#linear-gradient-6-meal-37);}.cls-32_meal-37{fill:#fdffff;}.cls-33_meal-37{fill:#fff;}
    </style>
    <linearGradient id="linear-gradient-meal-37" x1="760.18" y1="2934.51" x2="708.83" y2="3128.1" gradientTransform="translate(-490.09 3363.48) scale(1 -1)" gradientUnits="userSpaceOnUse">
      <stop offset="0" stop-color="#231f20"/>
      <stop offset=".13" stop-color="#231f20" stop-opacity=".69"/>
      <stop offset="1" stop-color="#231f20" stop-opacity="0"/>
    </linearGradient>
    <linearGradient id="linear-gradient-2-meal-37" x1="562.31" y1="3104.27" x2="866.05" y2="3104.27" xlink:href="#linear-gradient-meal-37"/>
    <linearGradient id="linear-gradient-3-meal-37" x1="1835.84" y1="2822.05" x2="1897.31" y2="2822.05" gradientTransform="translate(-744.99 3451.42) rotate(-15.78) scale(1 -1)" xlink:href="#linear-gradient-meal-37"/>
    <linearGradient id="linear-gradient-4-meal-37" x1="1843.31" y1="2839.21" x2="1846.63" y2="2839.21" gradientTransform="translate(-745 3451.42) rotate(-15.78) scale(1 -1)" xlink:href="#linear-gradient-meal-37"/>
    <linearGradient id="linear-gradient-5-meal-37" x1="1859.58" y1="2813.54" x2="1850.05" y2="2843.29" gradientTransform="translate(-744.99 3451.42) rotate(-15.78) scale(1 -1)" xlink:href="#linear-gradient-meal-37"/>
    <linearGradient id="linear-gradient-6-meal-37" x1="1865.56" y1="2815.46" x2="1856.02" y2="2845.21" gradientTransform="translate(-744.99 3451.42) rotate(-15.78) scale(1 -1)" xlink:href="#linear-gradient-meal-37"/>
    <linearGradient id="linear-gradient-7-meal-37" x1="1870.58" y1="2817.06" x2="1861.03" y2="2846.82" gradientTransform="translate(-744.99 3451.42) rotate(-15.78) scale(1 -1)" xlink:href="#linear-gradient-meal-37"/>
    <linearGradient id="linear-gradient-8-meal-37" x1="1871.23" y1="2828.08" x2="1873.97" y2="2828.08" gradientTransform="translate(-744.99 3451.42) rotate(-15.78) scale(1 -1)" xlink:href="#linear-gradient-meal-37"/>
    <linearGradient id="linear-gradient-9-meal-37" x1="1878.67" y1="2822.63" x2="1881.43" y2="2822.63" gradientTransform="translate(-744.99 3451.42) rotate(-15.78) scale(1 -1)" xlink:href="#linear-gradient-meal-37"/>
    <linearGradient id="linear-gradient-10-meal-37" x1="1885.79" y1="2816.12" x2="1889.08" y2="2816.12" gradientTransform="translate(-744.99 3451.42) rotate(-15.78) scale(1 -1)" xlink:href="#linear-gradient-meal-37"/>
    <linearGradient id="linear-gradient-11-meal-37" x1="1892.45" y1="2813.13" x2="1895.06" y2="2813.13" gradientTransform="translate(-744.99 3451.42) rotate(-15.78) scale(1 -1)" xlink:href="#linear-gradient-meal-37"/>
    <linearGradient id="linear-gradient-12-meal-37" x1="1862.74" y1="2780.86" x2="1872.1" y2="2817.82" gradientTransform="translate(-744.99 3451.42) rotate(-15.78) scale(1 -1)" xlink:href="#linear-gradient-meal-37"/>
    <linearGradient id="linear-gradient-13-meal-37" x1="677.82" y1="3089.13" x2="742.15" y2="3089.13" xlink:href="#linear-gradient-meal-37"/>
    <linearGradient id="linear-gradient-14-meal-37" x1="1821.52" y1="2783.59" x2="1830.88" y2="2820.55" gradientTransform="translate(-744.99 3451.42) rotate(-15.78) scale(1 -1)" xlink:href="#linear-gradient-meal-37"/>
    <linearGradient id="linear-gradient-15-meal-37" x1="708.41" y1="3128.43" x2="763.42" y2="3128.43" gradientTransform="translate(-490.09 3363.48) scale(1 -1)" gradientUnits="userSpaceOnUse">
      <stop offset="0" stop-color="#fff"/>
      <stop offset=".13" stop-color="#fff" stop-opacity=".69"/>
      <stop offset="1" stop-color="#fff" stop-opacity="0"/>
    </linearGradient>
    <linearGradient id="linear-gradient-16-meal-37" x1="717.93" y1="3121.12" x2="753.74" y2="3121.12" xlink:href="#linear-gradient-meal-37"/>
    <linearGradient id="linear-gradient-17-meal-37" x1="1164.84" y1="3003.22" x2="1172.82" y2="3112.51" gradientTransform="translate(-601.16 3396.04) rotate(-6.71) scale(1 -1)" xlink:href="#linear-gradient-meal-37"/>
    <linearGradient id="linear-gradient-18-meal-37" x1="686" y1="3117.98" x2="707.3" y2="3117.98" xlink:href="#linear-gradient-meal-37"/>
    <linearGradient id="linear-gradient-19-meal-37" x1="711.72" y1="3149.49" x2="692.63" y2="3108.9" xlink:href="#linear-gradient-meal-37"/>
    <linearGradient id="linear-gradient-20-meal-37" x1="677.03" y1="3100.55" x2="684.67" y2="3130.38" xlink:href="#linear-gradient-meal-37"/>
    <linearGradient id="linear-gradient-21-meal-37" x1="1704.5" y1="2823.4" x2="1765.97" y2="2823.4" gradientTransform="translate(-744.99 3451.42) rotate(-15.78) scale(1 -1)" xlink:href="#linear-gradient-meal-37"/>
    <linearGradient id="linear-gradient-22-meal-37" x1="1711.97" y1="2840.56" x2="1715.29" y2="2840.56" gradientTransform="translate(-745 3451.42) rotate(-15.78) scale(1 -1)" xlink:href="#linear-gradient-meal-37"/>
    <linearGradient id="linear-gradient-23-meal-37" x1="1728.26" y1="2814.88" x2="1718.72" y2="2844.63" gradientTransform="translate(-744.99 3451.42) rotate(-15.78) scale(1 -1)" xlink:href="#linear-gradient-meal-37"/>
    <linearGradient id="linear-gradient-24-meal-37" x1="1734.23" y1="2816.8" x2="1724.69" y2="2846.55" gradientTransform="translate(-744.99 3451.42) rotate(-15.78) scale(1 -1)" xlink:href="#linear-gradient-meal-37"/>
    <linearGradient id="linear-gradient-25-meal-37" x1="1739.24" y1="2818.41" x2="1729.7" y2="2848.16" gradientTransform="translate(-744.99 3451.42) rotate(-15.78) scale(1 -1)" xlink:href="#linear-gradient-meal-37"/>
    <linearGradient id="linear-gradient-26-meal-37" x1="1739.89" y1="2829.43" x2="1742.63" y2="2829.43" gradientTransform="translate(-744.99 3451.42) rotate(-15.78) scale(1 -1)" xlink:href="#linear-gradient-meal-37"/>
    <linearGradient id="linear-gradient-27-meal-37" x1="1747.33" y1="2823.98" x2="1750.1" y2="2823.98" gradientTransform="translate(-744.99 3451.42) rotate(-15.78) scale(1 -1)" xlink:href="#linear-gradient-meal-37"/>
    <linearGradient id="linear-gradient-28-meal-37" x1="1754.45" y1="2817.48" x2="1757.74" y2="2817.48" gradientTransform="translate(-744.99 3451.42) rotate(-15.78) scale(1 -1)" xlink:href="#linear-gradient-meal-37"/>
    <linearGradient id="linear-gradient-29-meal-37" x1="1761.11" y1="2814.56" x2="1763.73" y2="2814.56" gradientTransform="translate(-744.99 3451.42) rotate(-15.78) scale(1 -1)" xlink:href="#linear-gradient-meal-37"/>
    <linearGradient id="linear-gradient-30-meal-37" x1="1731.43" y1="2782.2" x2="1740.8" y2="2819.15" gradientTransform="translate(-744.99 3451.42) rotate(-15.78) scale(1 -1)" xlink:href="#linear-gradient-meal-37"/>
  </defs>
  <g id="background_meal-37">
    <path class="cls-2_meal-37 targetColor" d="M205.88,109.25l-.46.17c-26.8,9.64-51.21,26.71-79.71,32.18-13.58,2.6-27.72,2.6-40.79,7.12-34.9,12.07-51.81,52.81-52.51,89.73-.7,36.92,10.41,73.13,11.94,110.02.62,14.96,0,31.13,8.63,43.38,7.82,11.15,21.62,16.44,35,19.01,19.08,3.64,38.72,3.02,57.53-1.84,12.22-3.12,24-8.11,36.42-10.1,18.22-2.93,35.38,2.16,53.21,1.23,23.39-1.23,47.27-2.84,70.56-5.35,27.81-2.99,56.4-10.41,77.25-29.04,31.58-28.26,38.05-76.4,28.69-117.74-2.83-12.49-6.87-24.64-9.08-37.23-4.67-26.59-1.25-55.15-12.8-79.54-15.18-32.16-53.41-48.23-88.97-47.63-34.11.57-63.48,14.33-94.88,25.64Z" style="fill: rgb(225, 218, 204);"/>
  </g>
  <g id="sushi_meal-37">
    <path class="cls-1_meal-37" d="M372.64,267.49l-205.53,59.17c-9.94,2.86-26.63-.43-37.27-7.34l-45.49-29.55c-10.64-6.91-11.21-14.84-1.27-17.69l205.54-59.17c9.93-2.86,26.62.43,37.25,7.34l45.49,29.55c10.64,6.9,11.21,14.83,1.27,17.69Z"/>
    <path class="cls-34_meal-37 targetColor" d="M368.86,256.91l-205.54,59.17c-9.93,2.86-26.62-.43-37.25-7.34l-45.49-29.54c-10.64-6.92-11.21-14.84-1.27-17.69l205.54-59.18c9.93-2.86,26.62.43,37.25,7.35l45.49,29.54c10.64,6.91,11.21,14.83,1.27,17.69Z" style="fill: rgb(225, 218, 204);"/>
    <path class="cls-25_meal-37" d="M368.86,256.91l-205.54,59.17c-9.93,2.86-26.62-.43-37.25-7.34l-45.49-29.54c-10.64-6.92-11.21-14.84-1.27-17.69l205.54-59.18c9.93-2.86,26.62.43,37.25,7.35l45.49,29.54c10.64,6.91,11.21,14.83,1.27,17.69Z"/>
    <path class="cls-34_meal-37 targetColor" d="M367.35,249.74l-205.53,59.18c-9.94,2.86-26.63-.43-37.27-7.35l-45.53-29.54c-10.64-6.92-11.21-14.84-1.27-17.69l205.54-59.17c9.93-2.86,26.62.42,37.25,7.34l45.49,29.54c10.68,6.91,11.21,14.83,1.31,17.69Z" style="fill: rgb(225, 218, 204);"/>
    <path class="cls-32_meal-37" d="M318.97,240.08c-1.59-4.77-4.41-9.03-8.17-12.36-3.58-2.95-7.54-5.38-11.79-7.23-8.79-4.16-18.43-7.85-28.1-6.42-3.81.57-7.45,1.91-10.72,3.94-1.42.77-2.6,1.91-3.42,3.3-.7,1.61-.83,3.41-.36,5.11.64,2.59,1.79,5.02,3.38,7.16,5.87,8.4,15.1,13.78,24.35,18.19,3.2,1.63,6.56,2.94,10.02,3.9,5.18,1.33,10.61,1.33,15.79,0,1.85-.36,3.56-1.25,4.93-2.55.9-1.12,1.58-2.41,1.99-3.79,1.35-3.76,2.48-7.96.95-11.64"/>
    <path class="cls-34_meal-37 targetColor" d="M317.83,235.54c.08.34.11.69.09,1.04-.2,1.48-.94,2.84-2.08,3.81-1.64,1.66-3.57,3.01-5.7,3.96-.46.24-.96.38-1.48.43-1.16.05-2.08-.8-3.01-1.54-2.73-2.17-5.64-4.1-8.71-5.75-4.33-2.52-8.67-5.04-13.07-7.44-5.99-3.27-12.35-6.41-19.17-6.69-4.3-.18-8.64.78-12.86,0-.47-.05-.91-.23-1.27-.53-.76-.73-.42-1.83.2-2.77.2-.29.42-.56.66-.82,4.16-4.42,9.01-8.56,14.92-9.89,6.14-1.36,12.96.16,19.05,1.04,6.23.95,12.26,2.96,17.82,5.94,2.58,1.24,4.86,3.01,6.7,5.2,2.19,2.86,3.05,6.54,5.13,9.48,1.05,1.46,2.42,2.86,2.78,4.53Z" style="fill: rgb(225, 218, 204);"/>
    <path class="cls-26_meal-37" d="M317.83,235.54c.08.34.11.69.09,1.04-.2,1.48-.94,2.84-2.08,3.81-1.64,1.66-3.57,3.01-5.7,3.96-.46.24-.96.38-1.48.43-1.16.05-2.08-.8-3.01-1.54-2.73-2.17-5.64-4.1-8.71-5.75-4.33-2.52-8.67-5.04-13.07-7.44-5.99-3.27-12.35-6.41-19.17-6.69-4.3-.18-8.64.78-12.86,0-.47-.05-.91-.23-1.27-.53-.76-.73-.42-1.83.2-2.77.2-.29.42-.56.66-.82,4.16-4.42,9.01-8.56,14.92-9.89,6.14-1.36,12.96.16,19.05,1.04,6.23.95,12.26,2.96,17.82,5.94,2.58,1.24,4.86,3.01,6.7,5.2,2.19,2.86,3.05,6.54,5.13,9.48,1.05,1.46,2.42,2.86,2.78,4.53Z"/>
    <path class="cls-34_meal-37 targetColor" d="M317.83,235.54c-.42.81-.97,1.55-1.62,2.19-.17.18-.35.34-.53.51-.49.46-1,.89-1.54,1.29-1.13.86-2.35,1.58-3.64,2.17-.17.08-.35.15-.53.21-.3.12-.61.2-.94.22-.23,0-.45-.02-.67-.08-.88-.31-1.69-.81-2.35-1.47-1.84-1.51-3.8-2.87-5.86-4.08-.41-.24-.8-.49-1.21-.72l-1.64-.96-5.68-3.29-1.54-.88c-1.96-1.09-3.9-2.19-5.86-3.26-.3-.18-.61-.34-.94-.51-.83-.46-1.68-.89-2.51-1.32-1.23-.62-2.46-1.22-3.69-1.75h0c-.83-.39-1.68-.72-2.52-1.04-2.21-.85-4.51-1.46-6.85-1.82-.79-.11-1.59-.2-2.4-.24-.08-.01-.17-.01-.25,0-4.28-.17-8.64.79-12.84,0-.47-.05-.92-.23-1.29-.53-.05-.04-.1-.09-.14-.15.2-.29.42-.56.66-.82,2.82-3.2,6.16-5.9,9.88-8,.66-.33,1.33-.66,2-.94.99-.4,2.01-.71,3.05-.95l1.04-.21c.66-.11,1.33-.19,2-.23,1.79-.15,3.59-.15,5.38,0,1.1.09,2.19.22,3.28.35,1.83.25,3.65.56,5.43.85l1.9.3.52.08c1.95.32,3.87.74,5.78,1.26.86.22,1.71.49,2.55.77,1.94.62,3.85,1.36,5.7,2.22,1.09.49,2.16,1.04,3.23,1.59h0c1.83.93,3.53,2.09,5.07,3.44.6.54,1.14,1.13,1.63,1.77,1.35,2,2.48,4.14,3.38,6.38h0c.49,1.07,1.07,2.1,1.74,3.07,1.1,1.49,2.48,2.89,2.83,4.56Z" style="fill: rgb(225, 218, 204);"/>
    <polygon class="cls-24_meal-37" points="255.87 214.9 258.8 220.9 260.97 220.77 257.26 213.77 255.87 214.9"/>
    <path class="cls-30_meal-37" d="M267.7,220.95c-.79-.11-1.59-.2-2.4-.24-.24-.51-.5-1.04-.69-1.52-.56-1.69-1.2-3.35-1.94-4.96-.11-.25-.85-1.82-1.36-3.06.66-.33,1.33-.66,2-.94.69,1.18,1.29,2.41,1.79,3.67.96,2.31,1.82,4.68,2.6,7.05Z"/>
    <path class="cls-31_meal-37" d="M277.07,223.79c-.83-.39-1.68-.72-2.52-1.04-1.16-2.8-2.46-5.54-3.9-8.21-1.01-1.86-2.08-3.69-3.23-5.48.66-.11,1.33-.19,2-.23.32.42.63.85.95,1.29,2.81,3.86,4.29,8.45,6.32,12.77.14.32.28.61.39.91Z"/>
    <path class="cls-29_meal-37" d="M283.2,226.54c0,.1.06.23.08.33-.83-.46-1.68-.89-2.51-1.32-.97-3.41-1.99-6.76-3.29-10.08-.77-2.01-1.6-4.01-2.44-5.99-.09-.2-.18-.41-.25-.61,1.1.09,2.19.22,3.28.35.69,1.62,1.27,3.27,1.75,4.96,1.23,4.1,2.31,8.22,3.37,12.36Z"/>
    <path class="cls-27_meal-37" d="M291.62,231.53l-1.54-.88c-.69-3.86-1.68-7.66-2.96-11.36-.65-1.9-1.34-3.79-2.08-5.67-.42-1.04-1.12-2.32-1.56-3.54l1.9.3.52.08c.12.46.24.82.3,1.04,2.46,6.45,4.64,13.13,5.41,20.03Z"/>
    <path class="cls-28_meal-37" d="M300.15,236.49c-.41-.24-.8-.49-1.21-.72-.14-.48-.25-.97-.31-1.47-.66-4.47-1.75-8.87-3.24-13.13-.63-1.89-1.32-3.79-2.08-5.65-.45-1.16-1.21-2.51-1.64-3.81.86.22,1.71.49,2.55.77.11.4.22.71.27.87,2.82,7.43,5.29,15.15,5.66,23.13Z"/>
    <path class="cls-10_meal-37" d="M309.96,241.9c-.3.12-.61.2-.94.22-.23,0-.45-.02-.67-.08-.78-5.22-2.06-10.35-3.8-15.33-.76-2.25-1.57-4.48-2.42-6.7-.84-1.72-1.56-3.49-2.17-5.31,1.09.49,2.16,1.04,3.23,1.59.15.52.28.94.35,1.16,2.94,7.89,5.59,16.04,6.42,24.46Z"/>
    <path class="cls-7_meal-37" d="M313.31,227.95h0c1.01,3.37,1.8,6.81,2.35,10.29-.49.46-1,.89-1.54,1.29-.81-4.48-1.97-8.89-3.47-13.18-.74-2.21-1.54-4.4-2.37-6.58.6.54,1.14,1.13,1.63,1.77,1.35,2.01,2.49,4.16,3.39,6.41Z"/>
    <path class="cls-8_meal-37" d="M310.12,248.96c-1.19-.31-2.43.24-3,1.33h-5.53c-.71.09-1.41-.23-1.82-.81l-2.14-2.27c-.37-.45-.82-.83-1.33-1.12-.42-.21-.88-.28-1.31-.48-1.51-.72-1.89-2.73-3.18-3.8s-2.97-1.04-4.4-1.64c-1.59-.71-2.8-2.23-4.5-2.61-.79-.19-1.63-.1-2.44-.23-.81-.17-1.6-.45-2.34-.83-2.08-.98-4.24-1.97-6.24-3.12-2.01-1.16-3.75-2.22-5.59-3.38l-7.01-4.46c-.38-.26-.79-.47-1.23-.62-1.96-.58-3.86,1.52-3.9,3.55s1.14,3.86,2.29,5.54c2,3.05,4.19,5.97,6.57,8.74,5.89,6.62,13.53,11.38,21.32,15.61,1.72,1.02,3.55,1.83,5.45,2.41,2.89.64,5.87.75,8.8.32,8.72-.85,17.31-2.71,25.6-5.53,1.04-.22,1.95-.84,2.54-1.73.32-.88.28-1.84-.12-2.68-1.65-4.43-7.36-9.24-10.94-4.05-2.29-1.45-3.35,1.32-5.55,1.87Z"/>
    <path class="cls-9_meal-37" d="M249.83,269.79c.7.36,1.31.86,1.8,1.48.48.64.56,1.5.21,2.22-.3.42-.7.75-1.18.96-3.98,2.08-8.84,1.55-13.03,3.12-2,.89-3.93,1.93-5.78,3.12-13.4,7.71-30.09,6.82-42.59-2.29-.93-.68-1.91-1.79-1.39-2.8.21-.35.52-.64.89-.81,1.43-.64,2.94-1.07,4.49-1.28,8.93-1.91,16.37-8.47,25.34-10.18,4.64-.88,9.37-.42,14.09-.35,1.83-.15,3.66.31,5.2,1.3,1.79,1,3.66,1.88,5.58,2.61,2.18.83,4.31,1.8,6.37,2.9Z"/>
    <path class="cls-32_meal-37" d="M278.61,248.67c-1.58-4.78-4.4-9.05-8.17-12.39-3.58-2.95-7.54-5.38-11.79-7.23-8.79-4.16-18.43-7.85-28.1-6.42-3.8.57-7.45,1.91-10.72,3.94-1.42.76-2.61,1.91-3.42,3.3-.7,1.61-.83,3.41-.36,5.11.65,2.58,1.8,5.02,3.38,7.16,5.87,8.4,15.1,13.77,24.35,18.19,3.21,1.62,6.56,2.93,10.02,3.9,5.18,1.33,10.61,1.33,15.79,0,1.86-.35,3.57-1.24,4.93-2.55.9-1.12,1.58-2.4,1.99-3.78,1.35-3.76,2.49-7.96.95-11.64"/>
    <path class="cls-18_meal-37" d="M269.74,257.54c-1.18-.31-2.42.24-2.99,1.32h-5.54c-.32.03-.65,0-.96-.11-.34-.16-.63-.4-.86-.7l-2.08-2.29c-.37-.46-.82-.84-1.33-1.12-.42-.21-.88-.28-1.3-.48-1.52-.73-1.9-2.74-3.19-3.8s-2.97-1.04-4.4-1.64c-1.59-.72-2.79-2.23-4.5-2.62-.79-.18-1.63-.09-2.44-.22-.82-.17-1.6-.46-2.34-.84-2.08-.98-4.24-1.96-6.24-3.12-2.01-1.17-3.75-2.22-5.59-3.38l-7.11-4.34c-.38-.27-.79-.48-1.23-.62-1.96-.58-3.86,1.51-3.9,3.55s1.14,3.86,2.29,5.54c2,3.05,4.19,5.97,6.57,8.74,5.89,6.61,13.53,11.37,21.32,15.61,1.72,1.01,3.55,1.82,5.45,2.41,2.89.64,5.87.75,8.8.32,8.72-.85,17.31-2.71,25.6-5.53,1.04-.22,1.95-.84,2.54-1.73.32-.88.28-1.84-.12-2.68-1.65-4.43-7.36-9.24-10.94-4.05-2.25-1.5-3.31,1.24-5.52,1.79Z"/>
    <path class="cls-34_meal-37 targetColor" d="M223.4,221.09c-2.81,1.16-5.2,3.85-5.08,6.89.17,1.94,1.08,3.74,2.54,5.03,1.45,1.27,3.05,2.35,4.78,3.21l16.84,9.3c2.6,1.61,5.4,2.87,8.33,3.77,2.35.5,4.74.78,7.14.81,2.3.11,4.7.2,6.81-.74,1.68-.88,3.18-2.07,4.41-3.51,2.08-2.15,4.33-4.67,4.16-7.67-.21-1.87-1.1-3.6-2.49-4.87-3.28-3.31-7.97-4.66-12.34-6.24-3.31-1.22-6.55-2.63-9.9-3.72-4.61-1.4-9.32-2.43-14.09-3.07-3.48-.55-7.74-.57-11.1.81Z" style="fill: rgb(225, 218, 204);"/>
    <path class="cls-14_meal-37" d="M223.4,221.09c-2.81,1.16-5.2,3.85-5.08,6.89.17,1.94,1.08,3.74,2.54,5.03,1.45,1.27,3.05,2.35,4.78,3.21l16.84,9.3c2.6,1.61,5.4,2.87,8.33,3.77,2.35.5,4.74.78,7.14.81,2.3.11,4.7.2,6.81-.74,1.68-.88,3.18-2.07,4.41-3.51,2.08-2.15,4.33-4.67,4.16-7.67-.21-1.87-1.1-3.6-2.49-4.87-3.28-3.31-7.97-4.66-12.34-6.24-3.31-1.22-6.55-2.63-9.9-3.72-4.61-1.4-9.32-2.43-14.09-3.07-3.48-.55-7.74-.57-11.1.81Z"/>
    <path class="cls-12_meal-37" d="M228.45,245.24l-.57-7.44c-.05-.23-.05-.47,0-.7.12-.29.32-.55.57-.74,5.7-5.39,12.59-9.38,20.11-11.63.67-.23,1.37-.33,2.08-.31.47.06.93.18,1.37.34,3.7,1.22,7.33,2.63,10.89,4.22.23.08.44.21.6.4.46.61-.2,1.43-.8,1.89l-15.74,12.28c-.86.56-1.57,1.31-2.08,2.2-.33.88-.46,1.83-.39,2.77,0,3.55-.05,7.09-.14,10.65,0,.37-.05.81-.39,1.04-.27.12-.58.12-.85,0-3.78-1.03-7.22-3.05-9.97-5.84-2.74-2.81-4.4-6.49-4.68-10.41"/>
    <path class="cls-34_meal-37 targetColor" d="M209.03,228.07c-1.21-1.4-2.69-2.54-4.35-3.34-1.34-.45-2.75-.64-4.16-.57-4.7-.02-9.39.55-13.94,1.7-2.4.5-4.7,1.44-6.76,2.77-4.82,3.33-6.66,9.46-8.19,15.12-.75,2.2-1.05,4.53-.86,6.85.4,2.6,1.97,4.84,3.5,6.97,2.19,3.07,4.39,6.14,6.86,8.99,4.52,5.04,9.65,9.51,15.28,13.29,2.88,2.13,6.03,3.88,9.37,5.2,3.36,1.31,7.04,1.56,10.54.7,2.07-.64,4.03-1.61,5.8-2.87,5.07-3.39,9.38-7.79,12.67-12.92.86-1.23,1.51-2.6,1.93-4.04.34-1.71.4-3.47.17-5.2-.13-2.96-.68-5.89-1.64-8.7-2.08-5.38-6.77-6.98-10.94-10.28-5.35-4.24-10.44-8.8-15.25-13.65Z" style="fill: rgb(225, 218, 204);"/>
    <path class="cls-11_meal-37" d="M209.03,228.07c-1.21-1.4-2.69-2.54-4.35-3.34-1.34-.45-2.75-.64-4.16-.57-4.7-.02-9.39.55-13.94,1.7-2.4.5-4.7,1.44-6.76,2.77-4.82,3.33-6.66,9.46-8.19,15.12-.75,2.2-1.05,4.53-.86,6.85.4,2.6,1.97,4.84,3.5,6.97,2.19,3.07,4.39,6.14,6.86,8.99,4.52,5.04,9.65,9.51,15.28,13.29,2.88,2.13,6.03,3.88,9.37,5.2,3.36,1.31,7.04,1.56,10.54.7,2.07-.64,4.03-1.61,5.8-2.87,5.07-3.39,9.38-7.79,12.67-12.92.86-1.23,1.51-2.6,1.93-4.04.34-1.71.4-3.47.17-5.2-.13-2.96-.68-5.89-1.64-8.7-2.08-5.38-6.77-6.98-10.94-10.28-5.35-4.24-10.44-8.8-15.25-13.65Z"/>
    <path class="cls-33_meal-37" d="M188.76,227.32c-3.5.36-7.48,1.04-9.37,4-1.21,1.9-1.21,4.3-1.18,6.56,0,3.38.15,6.98,2.01,9.81,1.41,1.87,3.18,3.45,5.2,4.64,9.94,6.74,20.64,13.53,32.63,14.07,4,.17,8.33-.55,11.12-3.4,1.29-1.4,2.26-3.07,2.81-4.89.63-1.59.8-3.32.47-5-.5-1.96-2-3.48-3.43-4.89-1.63-1.6-3.27-3.21-5.04-4.64-3.63-2.92-7.8-5.11-11.45-8.01-1.92-1.55-3.72-3.23-5.39-5.05-1.22-1.29-2.67-3.87-4.39-4.47-1.72-.6-4.5.28-6.24.47l-7.76.81Z"/>
    <path class="cls-17_meal-37" d="M209.4,237.77c.66,1.29,1.77,2.28,3.12,2.79,1.3.57,2.71.88,4.03,1.42.23.06.43.2.57.39.13.37.04.78-.25,1.04-1.17,1.37-3.18,1.48-4.95,1.8-1.41.26-2.78.71-4.07,1.34-.32.13-.61.33-.84.58-.25.35-.43.75-.53,1.17-1.34,3.83-5.53,5.85-9.36,4.51-.16-.05-.31-.11-.46-.18-.41-.18-.87-.55-.72-.97.09-.19.25-.34.44-.43,2.69-1.77,4.65-4.45,5.52-7.56.47-1.69.71-3.64,2.08-4.68,1.94-1.44,4.81-.2,7.05-1.1"/>
    <path class="cls-13_meal-37" d="M201.97,228.57c-.6.24-1.15.59-1.61,1.04.22-1.12-1.11-2-2.27-1.97s-2.22.58-3.36.67-2.41-.32-3.63-.28c-1.09.13-2.16.35-3.22.65-1.08.3-2.24.07-3.12-.62,5.04-.95,10.11-1.64,15.22-2.08.74-.09,1.49-.09,2.24,0,2.86.43,4.7,3.12,6.47,5.4,2.45,3.18,5.37,5.97,8.66,8.27,3.26,2.28,6.87,4.09,9.8,6.76s5.2,6.58,4.54,10.5c-.44-2.64-1.62-5.11-3.4-7.11-.83-.77-1.53-1.67-2.08-2.66-.1-.33-.28-.62-.52-.85-.32-.17-.68-.24-1.04-.2-2.02,0-3.77-1.34-5.35-2.6l-13.04-10.33c-.95-.75-2.08-.42-2.84-1.28-.25-.31-.67-3.58-1.45-3.3Z"/>
    <path class="cls-34_meal-37 targetColor" d="M186.82,227.61c-2.37.37-4.59,1.39-6.4,2.96-1.83,1.61-2.67,4.06-2.23,6.45.29,1,.72,1.95,1.28,2.83,1.63,3.06,3.6,5.93,5.87,8.55,2.3,2.62,5.38,4.45,8.79,5.2,1.5.34,3.06.19,4.47-.42,1.58-.93,2.83-2.34,3.56-4.03.71-1.68,1.57-3.28,2.58-4.8,1.32-1.71,3.25-2.96,4.16-4.9,1.01-2.41.55-5.2-1.18-7.16-2.49-2.91-5.89-2.72-9.16-3.85-3.78-1.3-7.83-1.59-11.76-.84Z" style="fill: rgb(225, 218, 204);"/>
    <path class="cls-20_meal-37" d="M186.82,227.61c-2.37.37-4.59,1.39-6.4,2.96-1.83,1.61-2.67,4.06-2.23,6.45.29,1,.72,1.95,1.28,2.83,1.63,3.06,3.6,5.93,5.87,8.55,2.3,2.62,5.38,4.45,8.79,5.2,1.5.34,3.06.19,4.47-.42,1.58-.93,2.83-2.34,3.56-4.03.71-1.68,1.57-3.28,2.58-4.8,1.32-1.71,3.25-2.96,4.16-4.9,1.01-2.41.55-5.2-1.18-7.16-2.49-2.91-5.89-2.72-9.16-3.85-3.78-1.3-7.83-1.59-11.76-.84Z"/>
    <path class="cls-32_meal-37" d="M192.21,274.5c-1.59-4.77-4.41-9.03-8.17-12.36-3.58-2.95-7.54-5.38-11.79-7.23-8.78-4.16-18.42-7.85-28.1-6.42-3.8.57-7.45,1.91-10.72,3.94-1.4.78-2.56,1.92-3.35,3.31-.71,1.61-.84,3.41-.37,5.1.65,2.59,1.8,5.02,3.38,7.16,5.88,8.4,15.11,13.78,24.35,18.19,3.2,1.63,6.56,2.93,10.02,3.9,5.18,1.33,10.61,1.33,15.79,0,1.86-.36,3.57-1.25,4.94-2.55.9-1.12,1.57-2.41,1.98-3.79,1.35-3.75,2.49-7.96.96-11.64"/>
    <path class="cls-34_meal-37 targetColor" d="M191.07,269.95c.09.34.12.69.09,1.04-.2,1.48-.94,2.84-2.08,3.81-1.64,1.66-3.57,3-5.7,3.96-.46.24-.96.38-1.48.43-1.16.05-2.08-.8-3.01-1.54-2.73-2.17-5.65-4.09-8.71-5.75-4.34-2.52-8.67-5.04-13.07-7.44-6-3.27-12.35-6.41-19.17-6.69-4.3-.18-8.64.78-12.86,0-.47-.05-.91-.23-1.28-.53-.75-.73-.42-1.83.21-2.77.2-.29.42-.56.66-.82,4.16-4.42,9.01-8.56,14.92-9.89,6.13-1.36,12.95.16,19.05,1.09,6.23.95,12.26,2.96,17.82,5.94,2.57,1.24,4.85,3.01,6.69,5.2,2.2,2.86,3.05,6.54,5.14,9.48,1.11,1.4,2.42,2.81,2.78,4.47Z" style="fill: rgb(225, 218, 204);"/>
    <path class="cls-16_meal-37" d="M191.07,269.95c.09.34.12.69.09,1.04-.2,1.48-.94,2.84-2.08,3.81-1.64,1.66-3.57,3-5.7,3.96-.46.24-.96.38-1.48.43-1.16.05-2.08-.8-3.01-1.54-2.73-2.17-5.65-4.09-8.71-5.75-4.34-2.52-8.67-5.04-13.07-7.44-6-3.27-12.35-6.41-19.17-6.69-4.3-.18-8.64.78-12.86,0-.47-.05-.91-.23-1.28-.53-.75-.73-.42-1.83.21-2.77.2-.29.42-.56.66-.82,4.16-4.42,9.01-8.56,14.92-9.89,6.13-1.36,12.95.16,19.05,1.09,6.23.95,12.26,2.96,17.82,5.94,2.57,1.24,4.85,3.01,6.69,5.2,2.2,2.86,3.05,6.54,5.14,9.48,1.11,1.4,2.42,2.81,2.78,4.47Z"/>
    <path class="cls-34_meal-37 targetColor" d="M191.07,269.95c-.41.81-.96,1.55-1.61,2.19l-.54.51c-.48.46-.99.89-1.53,1.29-1.13.86-2.36,1.59-3.65,2.17-.17.08-.35.15-.53.21-.3.13-.61.2-.94.22-.22,0-.44-.02-.66-.08-.89-.3-1.69-.8-2.35-1.47-1.85-1.51-3.81-2.87-5.86-4.08l-1.21-.72-1.65-.96c-1.89-1.1-3.78-2.2-5.68-3.29l-1.54-.88c-1.95-1.04-3.89-2.19-5.85-3.26-.3-.18-.62-.34-.94-.51-.83-.45-1.68-.89-2.52-1.32-1.23-.62-2.46-1.22-3.69-1.75h0c-.83-.37-1.68-.72-2.52-1.04-2.21-.85-4.51-1.46-6.85-1.82-.79-.11-1.6-.2-2.4-.24-.08-.01-.17-.01-.25,0-4.29-.17-8.64.79-12.85,0-.47-.05-.92-.24-1.29-.53-.05-.04-.09-.09-.12-.15.2-.29.42-.56.66-.82,2.82-3.2,6.16-5.9,9.88-8,.66-.33,1.32-.66,2-.94.99-.4,2.01-.72,3.05-.95l1.04-.21c.67-.11,1.32-.18,2-.23,1.79-.15,3.6-.15,5.39,0,1.09.09,2.19.22,3.28.35,1.83.25,3.65.56,5.43.85l1.9.3.51.08c1.95.32,3.88.74,5.79,1.26.85.23,1.7.49,2.55.77,1.94.62,3.84,1.36,5.69,2.22,1.1.49,2.17,1.04,3.23,1.59h.05c1.83.93,3.53,2.09,5.07,3.44.59.54,1.13,1.13,1.62,1.77,1.35,2,2.49,4.14,3.39,6.38h0c.51,1.08,1.12,2.11,1.81,3.09,1.04,1.47,2.35,2.87,2.71,4.54Z" style="fill: rgb(225, 218, 204);"/>
    <polygon class="cls-19_meal-37" points="129.11 249.31 132.04 255.32 134.22 255.18 130.51 248.18 129.11 249.31"/>
    <path class="cls-15_meal-37" d="M140.95,255.36c-.79-.11-1.6-.2-2.4-.24-.26-.49-.49-1-.69-1.52-.56-1.69-1.2-3.35-1.94-4.96-.12-.25-.86-1.82-1.36-3.06.66-.33,1.32-.66,2-.94.68,1.18,1.28,2.41,1.78,3.67.97,2.31,1.83,4.67,2.61,7.05Z"/>
    <path class="cls-22_meal-37" d="M150.32,258.21c-.83-.37-1.68-.72-2.52-1.04-1.17-2.8-2.48-5.54-3.9-8.21-1.04-1.86-2.08-3.69-3.24-5.48.67-.11,1.32-.18,2-.23.32.42.65.85.96,1.29,2.81,3.86,4.29,8.46,6.31,12.78.14.3.28.59.4.89Z"/>
    <path class="cls-6_meal-37" d="M156.45,260.96c0,.1.06.23.08.33-.83-.45-1.68-.89-2.52-1.32-.96-3.41-1.99-6.76-3.28-10.08-.77-2.01-1.6-4.01-2.44-5.99-.09-.2-.18-.41-.25-.61,1.09.09,2.19.22,3.28.35.68,1.62,1.26,3.28,1.74,4.96,1.24,4.1,2.31,8.22,3.38,12.36Z"/>
    <path class="cls-23_meal-37" d="M164.85,265.94l-1.54-.88c-.69-3.86-1.68-7.66-2.96-11.36-.63-1.9-1.33-3.79-2.08-5.67-.41-1.04-1.11-2.32-1.55-3.54l1.9.3.51.08c.12.46.25.82.31,1.04,2.46,6.45,4.63,13.13,5.4,20.03Z"/>
    <path class="cls-21_meal-37" d="M173.4,270.91l-1.21-.72c-.14-.48-.25-.97-.31-1.47-.67-4.47-1.76-8.86-3.24-13.13-.64-1.89-1.33-3.78-2.08-5.65-.44-1.16-1.2-2.51-1.63-3.81.85.23,1.7.49,2.55.77.1.4.21.71.27.87,2.81,7.43,5.28,15.15,5.65,23.13Z"/>
    <path class="cls-5_meal-37" d="M183.16,276.32c-.3.13-.61.2-.94.22-.22,0-.44-.02-.66-.08-.79-5.22-2.07-10.35-3.8-15.33-.76-2.25-1.57-4.48-2.44-6.7-.84-1.72-1.56-3.49-2.17-5.31,1.1.49,2.17,1.04,3.23,1.59.16.52.28.94.35,1.16,2.99,7.89,5.64,16.04,6.42,24.46Z"/>
    <path class="cls-3_meal-37" d="M186.56,262.29h0c1.01,3.37,1.8,6.81,2.34,10.28-.48.46-.99.89-1.53,1.29-.82-4.48-1.98-8.88-3.47-13.18-.74-2.21-1.54-4.4-2.37-6.58.59.54,1.13,1.13,1.62,1.77,1.36,2.02,2.5,4.17,3.4,6.42Z"/>
    <path class="cls-4_meal-37" d="M183.36,283.37c-1.19-.31-2.43.24-3,1.33h-5.54c-.32.02-.64-.02-.95-.11-.34-.17-.63-.41-.87-.7l-2.08-2.3c-.37-.45-.82-.83-1.33-1.12-.42-.2-.89-.28-1.31-.48-1.51-.72-1.9-2.73-3.18-3.8s-2.97-1.04-4.41-1.64-2.79-2.23-4.49-2.61c-.8-.19-1.63-.1-2.45-.23-.81-.17-1.6-.45-2.34-.83-2.08-.98-4.24-1.97-6.24-3.12s-3.76-2.22-5.59-3.38l-7.01-4.46c-.38-.26-.8-.47-1.24-.62-1.95-.58-3.85,1.52-3.89,3.55s1.13,3.86,2.29,5.54c2,3.05,4.19,5.97,6.57,8.74,5.88,6.62,13.53,11.38,21.31,15.61,1.72,1.02,3.55,1.83,5.46,2.41,2.89.64,5.87.75,8.8.32,8.71-.85,17.3-2.7,25.59-5.53,1.04-.22,1.96-.84,2.55-1.73.32-.88.28-1.84-.12-2.68-1.65-4.43-7.36-9.24-10.95-4.05-2.31-1.38-3.37,1.35-5.58,1.9Z"/>
  </g>
</svg>
